<mxfile host="app.diagrams.net" modified="2022-07-29T19:34:58.000Z" agent="5.0 (Macintosh; Intel Mac OS X 10_15_7) AppleWebKit/605.1.15 (KHTML, like Gecko) Version/15.5 Safari/605.1.15" etag="cttpEk_GkDzcnG2Yo10l" version="20.2.2" type="github">
  <diagram id="K5_SCv75RBPvVDGdjebi" name="Page-1">
    <mxGraphModel dx="1186" dy="875" grid="1" gridSize="10" guides="1" tooltips="1" connect="1" arrows="1" fold="1" page="1" pageScale="1" pageWidth="827" pageHeight="1169" math="0" shadow="0">
      <root>
        <mxCell id="0" />
        <mxCell id="1" parent="0" />
        <mxCell id="SCBNcbrIlkULK3hgfyRc-16" value="&lt;font style=&quot;font-size: 18px;&quot;&gt;mestianska LAN&lt;/font&gt;" style="rounded=1;whiteSpace=wrap;html=1;verticalAlign=bottom;" vertex="1" parent="1">
          <mxGeometry x="230" y="690" width="540" height="190" as="geometry" />
        </mxCell>
        <mxCell id="SCBNcbrIlkULK3hgfyRc-3" value="&lt;font style=&quot;font-size: 18px;&quot;&gt;schnitzel LAN&lt;/font&gt;" style="rounded=1;whiteSpace=wrap;html=1;fillColor=#f8cecc;strokeColor=#b85450;verticalAlign=top;" vertex="1" parent="1">
          <mxGeometry x="490" y="140" width="320" height="460" as="geometry" />
        </mxCell>
        <mxCell id="SCBNcbrIlkULK3hgfyRc-17" value="" style="curved=1;endArrow=classic;html=1;rounded=0;fontSize=12;exitX=0.5;exitY=0;exitDx=0;exitDy=0;exitPerimeter=0;entryX=0.5;entryY=1;entryDx=0;entryDy=0;strokeWidth=2;dashed=1;strokeColor=#007FFF;" edge="1" parent="1" source="SCBNcbrIlkULK3hgfyRc-14" target="SCBNcbrIlkULK3hgfyRc-8">
          <mxGeometry width="50" height="50" relative="1" as="geometry">
            <mxPoint x="470" y="570" as="sourcePoint" />
            <mxPoint x="520" y="520" as="targetPoint" />
            <Array as="points">
              <mxPoint x="430" y="760" />
              <mxPoint x="600" y="620" />
              <mxPoint x="640" y="440" />
              <mxPoint x="590" y="370" />
            </Array>
          </mxGeometry>
        </mxCell>
        <mxCell id="wipVx5Agw4MrlNmya5FI-1" value="User" style="shape=umlActor;verticalLabelPosition=bottom;verticalAlign=top;html=1;" parent="1" vertex="1">
          <mxGeometry x="404" y="770" width="30" height="60" as="geometry" />
        </mxCell>
        <mxCell id="wipVx5Agw4MrlNmya5FI-2" value="CS" style="shape=cylinder3;whiteSpace=wrap;html=1;boundedLbl=1;backgroundOutline=1;size=15;" parent="1" vertex="1">
          <mxGeometry x="120" y="400" width="60" height="80" as="geometry" />
        </mxCell>
        <mxCell id="wipVx5Agw4MrlNmya5FI-3" value="&lt;b&gt;RPi&lt;br&gt;&lt;br&gt;&lt;br&gt;&lt;/b&gt;" style="rounded=1;whiteSpace=wrap;html=1;" parent="1" vertex="1">
          <mxGeometry x="620" y="400" width="150" height="90" as="geometry" />
        </mxCell>
        <mxCell id="wipVx5Agw4MrlNmya5FI-4" value="" style="endArrow=classic;html=1;entryX=1;entryY=0.5;entryDx=0;entryDy=0;entryPerimeter=0;exitX=0;exitY=0.25;exitDx=0;exitDy=0;" parent="1" source="SCBNcbrIlkULK3hgfyRc-7" target="wipVx5Agw4MrlNmya5FI-2" edge="1">
          <mxGeometry width="50" height="50" relative="1" as="geometry">
            <mxPoint x="370" y="750" as="sourcePoint" />
            <mxPoint x="420" y="700" as="targetPoint" />
          </mxGeometry>
        </mxCell>
        <mxCell id="wipVx5Agw4MrlNmya5FI-5" value="SSH tunnel (automatic)&lt;br&gt;-$MODE $PORT_LISTEN:$DST_IP:$DST_PORT&lt;br&gt;-Remote 55000:127.0.0.1:22&lt;br&gt;-Remote 55001:127.0.0.1:5900" style="edgeLabel;html=1;align=center;verticalAlign=middle;resizable=0;points=[];" parent="wipVx5Agw4MrlNmya5FI-4" vertex="1" connectable="0">
          <mxGeometry x="0.1463" y="-1" relative="1" as="geometry">
            <mxPoint as="offset" />
          </mxGeometry>
        </mxCell>
        <mxCell id="wipVx5Agw4MrlNmya5FI-6" value="" style="endArrow=classic;html=1;entryX=0.5;entryY=1;entryDx=0;entryDy=0;entryPerimeter=0;exitX=0.5;exitY=0;exitDx=0;exitDy=0;exitPerimeter=0;" parent="1" source="wipVx5Agw4MrlNmya5FI-1" target="wipVx5Agw4MrlNmya5FI-2" edge="1">
          <mxGeometry width="50" height="50" relative="1" as="geometry">
            <mxPoint x="517" y="640" as="sourcePoint" />
            <mxPoint x="271" y="640" as="targetPoint" />
          </mxGeometry>
        </mxCell>
        <mxCell id="wipVx5Agw4MrlNmya5FI-7" value="SSH tunnel from user PC&lt;br&gt;-$MODE $PORT_LISTEN:$DST_IP:$DST_PORT&lt;br&gt;-Local 55001:127.0.0.1:55001&lt;br&gt;-Local 55000:127.0.0.1:55000" style="edgeLabel;html=1;align=center;verticalAlign=middle;resizable=0;points=[];" parent="wipVx5Agw4MrlNmya5FI-6" vertex="1" connectable="0">
          <mxGeometry x="0.1463" y="-1" relative="1" as="geometry">
            <mxPoint as="offset" />
          </mxGeometry>
        </mxCell>
        <mxCell id="wipVx5Agw4MrlNmya5FI-8" value="" style="curved=1;endArrow=classic;html=1;exitX=1;exitY=0.3333333333333333;exitDx=0;exitDy=0;exitPerimeter=0;entryX=0;entryY=0.5;entryDx=0;entryDy=0;dashed=1;strokeWidth=2;fillColor=#f8cecc;strokeColor=#FF0000;" parent="1" source="wipVx5Agw4MrlNmya5FI-1" target="SCBNcbrIlkULK3hgfyRc-7" edge="1">
          <mxGeometry width="50" height="50" relative="1" as="geometry">
            <mxPoint x="370" y="750" as="sourcePoint" />
            <mxPoint x="420" y="700" as="targetPoint" />
            <Array as="points">
              <mxPoint x="430" y="620" />
              <mxPoint x="430" y="570" />
            </Array>
          </mxGeometry>
        </mxCell>
        <mxCell id="wipVx5Agw4MrlNmya5FI-9" value="&lt;font color=&quot;#ff0000&quot;&gt;VNC: localhost:55001&lt;br&gt;SSH: localhost:55000&lt;/font&gt;" style="edgeLabel;html=1;align=center;verticalAlign=middle;resizable=0;points=[];" parent="wipVx5Agw4MrlNmya5FI-8" vertex="1" connectable="0">
          <mxGeometry x="-0.2674" y="-2" relative="1" as="geometry">
            <mxPoint x="17" y="44" as="offset" />
          </mxGeometry>
        </mxCell>
        <mxCell id="SCBNcbrIlkULK3hgfyRc-1" value="virt iface 10.123.123.1/29" style="rounded=0;whiteSpace=wrap;html=1;" vertex="1" parent="1">
          <mxGeometry x="620" y="400" width="140" height="20" as="geometry" />
        </mxCell>
        <mxCell id="SCBNcbrIlkULK3hgfyRc-4" value="NAS" style="shape=cylinder3;whiteSpace=wrap;html=1;boundedLbl=1;backgroundOutline=1;size=15;fontSize=18;" vertex="1" parent="1">
          <mxGeometry x="620" y="234" width="60" height="80" as="geometry" />
        </mxCell>
        <mxCell id="SCBNcbrIlkULK3hgfyRc-7" value="phys iface 192.168.x.x" style="rounded=0;whiteSpace=wrap;html=1;" vertex="1" parent="1">
          <mxGeometry x="620" y="440" width="130" height="20" as="geometry" />
        </mxCell>
        <mxCell id="SCBNcbrIlkULK3hgfyRc-8" value="10.123.123.2/29" style="rounded=0;whiteSpace=wrap;html=1;fontSize=12;" vertex="1" parent="1">
          <mxGeometry x="610" y="300" width="90" height="20" as="geometry" />
        </mxCell>
        <mxCell id="SCBNcbrIlkULK3hgfyRc-5" value="" style="curved=1;endArrow=classic;html=1;rounded=0;fontSize=18;entryX=0;entryY=0.5;entryDx=0;entryDy=0;exitX=0.5;exitY=1;exitDx=0;exitDy=0;startArrow=block;startFill=1;" edge="1" parent="1" source="SCBNcbrIlkULK3hgfyRc-8" target="SCBNcbrIlkULK3hgfyRc-1">
          <mxGeometry width="50" height="50" relative="1" as="geometry">
            <mxPoint x="430" y="470" as="sourcePoint" />
            <mxPoint x="480" y="420" as="targetPoint" />
            <Array as="points">
              <mxPoint x="590" y="350" />
              <mxPoint x="590" y="390" />
            </Array>
          </mxGeometry>
        </mxCell>
        <mxCell id="SCBNcbrIlkULK3hgfyRc-9" value="FW &amp;nbsp;NUC" style="rounded=1;whiteSpace=wrap;html=1;fontSize=12;" vertex="1" parent="1">
          <mxGeometry x="359" y="700" width="120" height="60" as="geometry" />
        </mxCell>
        <mxCell id="SCBNcbrIlkULK3hgfyRc-10" value="openvpn 10.123.123.10" style="rounded=0;whiteSpace=wrap;html=1;" vertex="1" parent="1">
          <mxGeometry x="620" y="470" width="130" height="20" as="geometry" />
        </mxCell>
        <mxCell id="SCBNcbrIlkULK3hgfyRc-11" value="" style="curved=1;endArrow=oval;html=1;exitX=1;exitY=0.5;exitDx=0;exitDy=0;entryX=0;entryY=0.5;entryDx=0;entryDy=0;dashed=1;strokeWidth=2;fillColor=#f8cecc;strokeColor=#FF0000;startArrow=block;startFill=1;endFill=1;" edge="1" parent="1" source="SCBNcbrIlkULK3hgfyRc-9">
          <mxGeometry width="50" height="50" relative="1" as="geometry">
            <mxPoint x="444" y="800" as="sourcePoint" />
            <mxPoint x="630" y="460" as="targetPoint" />
            <Array as="points">
              <mxPoint x="640" y="620" />
            </Array>
          </mxGeometry>
        </mxCell>
        <mxCell id="SCBNcbrIlkULK3hgfyRc-12" value="&lt;font color=&quot;#ff0000&quot;&gt;&lt;span style=&quot;caret-color: rgb(255, 0, 0);&quot;&gt;OpenVPN&lt;/span&gt;&lt;/font&gt;" style="edgeLabel;html=1;align=center;verticalAlign=middle;resizable=0;points=[];" vertex="1" connectable="0" parent="SCBNcbrIlkULK3hgfyRc-11">
          <mxGeometry x="-0.2674" y="-2" relative="1" as="geometry">
            <mxPoint x="-17" y="-8" as="offset" />
          </mxGeometry>
        </mxCell>
        <mxCell id="SCBNcbrIlkULK3hgfyRc-14" value="NAS" style="shape=cylinder3;whiteSpace=wrap;html=1;boundedLbl=1;backgroundOutline=1;size=15;fontSize=18;" vertex="1" parent="1">
          <mxGeometry x="570" y="760" width="60" height="80" as="geometry" />
        </mxCell>
      </root>
    </mxGraphModel>
  </diagram>
</mxfile>
